<?xml version="1.0" encoding="utf-8" standalone="no"?>
<!DOCTYPE svg PUBLIC "-//W3C//DTD SVG 1.1//EN"
  "http://www.w3.org/Graphics/SVG/1.1/DTD/svg11.dtd">
<svg xmlns:xlink="http://www.w3.org/1999/xlink" width="360pt" height="360pt" viewBox="0 0 360 360" xmlns="http://www.w3.org/2000/svg" version="1.1">
 <metadata>
  <rdf:RDF xmlns:dc="http://purl.org/dc/elements/1.1/" xmlns:cc="http://creativecommons.org/ns#" xmlns:rdf="http://www.w3.org/1999/02/22-rdf-syntax-ns#">
   <cc:Work>
    <dc:type rdf:resource="http://purl.org/dc/dcmitype/StillImage"/>
    <dc:date>2025-04-11T15:46:29.817142</dc:date>
    <dc:format>image/svg+xml</dc:format>
    <dc:creator>
     <cc:Agent>
      <dc:title>Matplotlib v3.10.1, https://matplotlib.org/</dc:title>
     </cc:Agent>
    </dc:creator>
   </cc:Work>
  </rdf:RDF>
 </metadata>
 <defs>
  <style type="text/css">*{stroke-linejoin: round; stroke-linecap: butt}</style>
 </defs>
 <g id="figure_1">
  <g id="patch_1">
   <path d="M 0 360 
L 360 360 
L 360 0 
L 0 0 
z
" style="fill: #ffffff"/>
  </g>
  <g id="axes_1">
   <g id="PatchCollection_1">
    <defs>
     <path id="mc0356783b2" d="M 25.420828 -261.896747 
L 24.629824 -93.140818 
L 179.21607 -11.242264 
L 334.585687 -98.120091 
L 335.353944 -266.879628 
L 180.775333 -348.757736 
L 25.420828 -261.896747 
" style="stroke: #d7642c; stroke-width: 2"/>
    </defs>
    <g clip-path="url(#pfb4b3c809b)">
     <use xlink:href="#mc0356783b2" x="0" y="360" style="fill: #d7642c; fill-opacity: 0.188235; stroke: #d7642c; stroke-width: 2"/>
    </g>
   </g>
   <g id="PatchCollection_2">
    <path d="M 135.941798 132.48381 
L 113.523381 193.109067 
L 157.577876 240.615466 
L 224.051864 227.493637 
L 246.46811 166.866072 
L 202.41254 119.362643 
L 135.941798 132.48381 
" clip-path="url(#pfb4b3c809b)" style="fill: #466eb4; fill-opacity: 0.188235; stroke: #466eb4; stroke-width: 2"/>
    <path d="M 224.828222 58.740717 
L 202.41254 119.362643 
L 246.46811 166.866072 
L 312.940435 153.744604 
L 335.353944 93.120372 
L 291.297301 45.619913 
L 224.828222 58.740717 
" clip-path="url(#pfb4b3c809b)" style="fill: #466eb4; fill-opacity: 0.188235; stroke: #466eb4; stroke-width: 2"/>
    <path d="M 246.46811 166.866072 
L 224.051864 227.493637 
L 268.110116 275.002041 
L 334.585687 261.879909 
L 356.99976 201.250038 
L 312.940435 153.744604 
L 246.46811 166.866072 
" clip-path="url(#pfb4b3c809b)" style="fill: #466eb4; fill-opacity: 0.188235; stroke: #466eb4; stroke-width: 2"/>
    <path d="M 47.050978 206.230594 
L 24.629824 266.859182 
L 68.683244 314.368551 
L 135.158893 301.246362 
L 157.577876 240.615466 
L 113.523381 193.109067 
L 47.050978 206.230594 
" clip-path="url(#pfb4b3c809b)" style="fill: #466eb4; fill-opacity: 0.188235; stroke: #466eb4; stroke-width: 2"/>
    <path d="M 25.420828 98.103253 
L 3.00024 158.726202 
L 47.050978 206.230594 
L 113.523381 193.109067 
L 135.941798 132.48381 
L 91.889984 84.982387 
L 25.420828 98.103253 
" clip-path="url(#pfb4b3c809b)" style="fill: #466eb4; fill-opacity: 0.188235; stroke: #466eb4; stroke-width: 2"/>
    <path d="M 114.307837 24.362768 
L 91.889984 84.982387 
L 135.941798 132.48381 
L 202.41254 119.362643 
L 224.828222 58.740717 
L 180.775333 11.242264 
L 114.307837 24.362768 
" clip-path="url(#pfb4b3c809b)" style="fill: #466eb4; fill-opacity: 0.188235; stroke: #466eb4; stroke-width: 2"/>
    <path d="M 157.577876 240.615466 
L 135.158893 301.246362 
L 179.21607 348.757736 
L 245.693305 335.635244 
L 268.110116 275.002041 
L 224.051864 227.493637 
L 157.577876 240.615466 
" clip-path="url(#pfb4b3c809b)" style="fill: #466eb4; fill-opacity: 0.188235; stroke: #466eb4; stroke-width: 2"/>
   </g>
  </g>
 </g>
 <defs>
  <clipPath id="pfb4b3c809b">
   <rect x="3.00024" y="11.242264" width="353.99952" height="337.515473"/>
  </clipPath>
 </defs>
</svg>
