<?xml version="1.0" encoding="utf-8" standalone="no"?>
<!DOCTYPE svg PUBLIC "-//W3C//DTD SVG 1.1//EN"
  "http://www.w3.org/Graphics/SVG/1.1/DTD/svg11.dtd">
<svg xmlns:xlink="http://www.w3.org/1999/xlink" width="360pt" height="360pt" viewBox="0 0 360 360" xmlns="http://www.w3.org/2000/svg" version="1.1">
 <metadata>
  <rdf:RDF xmlns:dc="http://purl.org/dc/elements/1.1/" xmlns:cc="http://creativecommons.org/ns#" xmlns:rdf="http://www.w3.org/1999/02/22-rdf-syntax-ns#">
   <cc:Work>
    <dc:type rdf:resource="http://purl.org/dc/dcmitype/StillImage"/>
    <dc:date>2025-04-11T15:46:32.970415</dc:date>
    <dc:format>image/svg+xml</dc:format>
    <dc:creator>
     <cc:Agent>
      <dc:title>Matplotlib v3.10.1, https://matplotlib.org/</dc:title>
     </cc:Agent>
    </dc:creator>
   </cc:Work>
  </rdf:RDF>
 </metadata>
 <defs>
  <style type="text/css">*{stroke-linejoin: round; stroke-linecap: butt}</style>
 </defs>
 <g id="figure_1">
  <g id="patch_1">
   <path d="M 0 360 
L 360 360 
L 360 0 
L 0 0 
z
" style="fill: #ffffff"/>
  </g>
  <g id="axes_1">
   <g id="PatchCollection_1">
    <defs>
     <path id="m32ef81c165" d="M 25.420828 -261.896747 
L 24.629824 -93.140818 
L 179.21607 -11.242264 
L 334.585687 -98.120091 
L 335.353944 -266.879628 
L 180.775333 -348.757736 
L 25.420828 -261.896747 
" style="stroke: #d7642c; stroke-width: 2"/>
    </defs>
    <g clip-path="url(#p35b8f550b8)">
     <use xlink:href="#m32ef81c165" x="0" y="360" style="fill: #d7642c; fill-opacity: 0.188235; stroke: #d7642c; stroke-width: 2"/>
    </g>
   </g>
   <g id="PatchCollection_2">
    <path d="M 135.941798 132.48381 
L 113.523381 193.109067 
L 157.577876 240.615466 
L 224.051864 227.493637 
L 246.46811 166.866072 
L 202.41254 119.362643 
L 135.941798 132.48381 
" clip-path="url(#p35b8f550b8)" style="fill: #466eb4; fill-opacity: 0.188235; stroke: #466eb4; stroke-width: 2"/>
    <path d="M 224.828222 58.740717 
L 202.41254 119.362643 
L 246.46811 166.866072 
L 312.940435 153.744604 
L 335.353944 93.120372 
L 291.297301 45.619913 
L 224.828222 58.740717 
" clip-path="url(#p35b8f550b8)" style="fill: #466eb4; fill-opacity: 0.188235; stroke: #466eb4; stroke-width: 2"/>
    <path d="M 246.46811 166.866072 
L 224.051864 227.493637 
L 268.110116 275.002041 
L 334.585687 261.879909 
L 356.99976 201.250038 
L 312.940435 153.744604 
L 246.46811 166.866072 
" clip-path="url(#p35b8f550b8)" style="fill: #466eb4; fill-opacity: 0.188235; stroke: #466eb4; stroke-width: 2"/>
    <path d="M 47.050978 206.230594 
L 24.629824 266.859182 
L 68.683244 314.368551 
L 135.158893 301.246362 
L 157.577876 240.615466 
L 113.523381 193.109067 
L 47.050978 206.230594 
" clip-path="url(#p35b8f550b8)" style="fill: #466eb4; fill-opacity: 0.188235; stroke: #466eb4; stroke-width: 2"/>
    <path d="M 25.420828 98.103253 
L 3.00024 158.726202 
L 47.050978 206.230594 
L 113.523381 193.109067 
L 135.941798 132.48381 
L 91.889984 84.982387 
L 25.420828 98.103253 
" clip-path="url(#p35b8f550b8)" style="fill: #466eb4; fill-opacity: 0.188235; stroke: #466eb4; stroke-width: 2"/>
    <path d="M 114.307837 24.362768 
L 91.889984 84.982387 
L 135.941798 132.48381 
L 202.41254 119.362643 
L 224.828222 58.740717 
L 180.775333 11.242264 
L 114.307837 24.362768 
" clip-path="url(#p35b8f550b8)" style="fill: #466eb4; fill-opacity: 0.188235; stroke: #466eb4; stroke-width: 2"/>
    <path d="M 157.577876 240.615466 
L 135.158893 301.246362 
L 179.21607 348.757736 
L 245.693305 335.635244 
L 268.110116 275.002041 
L 224.051864 227.493637 
L 157.577876 240.615466 
" clip-path="url(#p35b8f550b8)" style="fill: #466eb4; fill-opacity: 0.188235; stroke: #466eb4; stroke-width: 2"/>
   </g>
   <g id="PatchCollection_3">
    <path d="M 224.162779 203.384554 
L 224.051864 227.493637 
L 246.136065 239.192671 
L 268.331024 226.782204 
L 268.441475 202.673047 
L 246.357431 190.97443 
L 224.162779 203.384554 
" clip-path="url(#p35b8f550b8)" style="fill: #e6a532; fill-opacity: 0.188235; stroke: #e6a532; stroke-width: 2"/>
    <path d="M 224.495511 131.06035 
L 224.384603 155.16791 
L 246.46811 166.866072 
L 268.66237 154.456256 
L 268.772814 130.348623 
L 246.689463 118.650878 
L 224.495511 131.06035 
" clip-path="url(#p35b8f550b8)" style="fill: #e6a532; fill-opacity: 0.188235; stroke: #e6a532; stroke-width: 2"/>
    <path d="M 135.606282 204.807571 
L 135.494438 228.916507 
L 157.577876 240.615466 
L 179.773002 228.205071 
L 179.884381 204.096062 
L 157.801099 192.39752 
L 135.606282 204.807571 
" clip-path="url(#p35b8f550b8)" style="fill: #e6a532; fill-opacity: 0.188235; stroke: #e6a532; stroke-width: 2"/>
    <path d="M 135.941798 132.48381 
L 135.829962 156.591222 
L 157.912707 168.289309 
L 180.107133 155.879566 
L 180.218506 131.772079 
L 158.135916 120.07441 
L 135.941798 132.48381 
" clip-path="url(#p35b8f550b8)" style="fill: #e6a532; fill-opacity: 0.188235; stroke: #e6a532; stroke-width: 2"/>
    <path d="M 157.243024 312.946193 
L 157.131402 337.057451 
L 179.21607 348.757736 
L 201.412204 336.346347 
L 201.523362 312.235016 
L 179.43885 300.535147 
L 157.243024 312.946193 
" clip-path="url(#p35b8f550b8)" style="fill: #e6a532; fill-opacity: 0.188235; stroke: #e6a532; stroke-width: 2"/>
    <path d="M 25.081841 170.424176 
L 24.96884 194.532166 
L 47.050978 206.230594 
L 69.245961 193.820616 
L 69.358497 169.712552 
L 47.276515 158.014541 
L 25.081841 170.424176 
" clip-path="url(#p35b8f550b8)" style="fill: #e6a532; fill-opacity: 0.188235; stroke: #e6a532; stroke-width: 2"/>
    <path d="M 91.66539 133.195542 
L 91.553089 157.302881 
L 113.635453 169.00093 
L 135.829962 156.591222 
L 135.941798 132.48381 
L 113.85959 120.786178 
L 91.66539 133.195542 
" clip-path="url(#p35b8f550b8)" style="fill: #e6a532; fill-opacity: 0.188235; stroke: #e6a532; stroke-width: 2"/>
    <path d="M 290.415606 238.481275 
L 290.305384 262.59123 
L 312.390502 274.290756 
L 334.585687 261.879909 
L 334.695445 237.76988 
L 312.610482 226.070772 
L 290.415606 238.481275 
" clip-path="url(#p35b8f550b8)" style="fill: #e6a532; fill-opacity: 0.188235; stroke: #e6a532; stroke-width: 2"/>
    <path d="M 291.076891 93.832206 
L 290.966683 117.939115 
L 313.050415 129.636897 
L 335.2442 117.227354 
L 335.353944 93.120372 
L 313.270368 81.423007 
L 291.076891 93.832206 
" clip-path="url(#p35b8f550b8)" style="fill: #e6a532; fill-opacity: 0.188235; stroke: #e6a532; stroke-width: 2"/>
    <path d="M 69.020881 242.038267 
L 68.908338 266.147853 
L 90.99155 277.847192 
L 113.18715 265.436526 
L 113.299229 241.326866 
L 91.216173 229.627944 
L 69.020881 242.038267 
" clip-path="url(#p35b8f550b8)" style="fill: #e6a532; fill-opacity: 0.188235; stroke: #e6a532; stroke-width: 2"/>
    <path d="M 113.971655 96.679564 
L 113.85959 120.786178 
L 135.941798 132.48381 
L 158.135916 120.07441 
L 158.247517 95.967722 
L 136.165465 84.270507 
L 113.971655 96.679564 
" clip-path="url(#p35b8f550b8)" style="fill: #e6a532; fill-opacity: 0.188235; stroke: #e6a532; stroke-width: 2"/>
    <path d="M 224.828222 58.740717 
L 224.71732 82.846753 
L 246.800135 94.544043 
L 268.993695 82.134879 
L 269.104132 58.028769 
L 247.021473 46.331896 
L 224.828222 58.740717 
" clip-path="url(#p35b8f550b8)" style="fill: #e6a532; fill-opacity: 0.188235; stroke: #e6a532; stroke-width: 2"/>
    <path d="M 113.299229 241.326866 
L 113.18715 265.436526 
L 135.270744 277.135903 
L 157.466261 264.725201 
L 157.577876 240.615466 
L 135.494438 228.916507 
L 113.299229 241.326866 
" clip-path="url(#p35b8f550b8)" style="fill: #e6a532; fill-opacity: 0.188235; stroke: #e6a532; stroke-width: 2"/>
    <path d="M 91.32848 205.519082 
L 91.216173 229.627944 
L 113.299229 241.326866 
L 135.494438 228.916507 
L 135.606282 204.807571 
L 113.523381 193.109067 
L 91.32848 205.519082 
" clip-path="url(#p35b8f550b8)" style="fill: #e6a532; fill-opacity: 0.188235; stroke: #e6a532; stroke-width: 2"/>
    <path d="M 268.772814 130.348623 
L 268.66237 154.456256 
L 290.746259 166.154456 
L 312.940435 153.744604 
L 313.050415 129.636897 
L 290.966683 117.939115 
L 268.772814 130.348623 
" clip-path="url(#p35b8f550b8)" style="fill: #e6a532; fill-opacity: 0.188235; stroke: #e6a532; stroke-width: 2"/>
    <path d="M 47.38928 133.907276 
L 47.276515 158.014541 
L 69.358497 169.712552 
L 91.553089 157.302881 
L 91.66539 133.195542 
L 69.583563 121.497948 
L 47.38928 133.907276 
" clip-path="url(#p35b8f550b8)" style="fill: #e6a532; fill-opacity: 0.188235; stroke: #e6a532; stroke-width: 2"/>
    <path d="M 158.582306 23.650705 
L 158.470712 47.755869 
L 180.552609 59.452666 
L 202.745944 47.043882 
L 202.857074 22.938644 
L 180.775333 11.242264 
L 158.582306 23.650705 
" clip-path="url(#p35b8f550b8)" style="fill: #e6a532; fill-opacity: 0.188235; stroke: #e6a532; stroke-width: 2"/>
    <path d="M 69.696092 97.391407 
L 69.583563 121.497948 
L 91.66539 133.195542 
L 113.85959 120.786178 
L 113.971655 96.679564 
L 91.889984 84.982387 
L 69.696092 97.391407 
" clip-path="url(#p35b8f550b8)" style="fill: #e6a532; fill-opacity: 0.188235; stroke: #e6a532; stroke-width: 2"/>
    <path d="M 246.46811 166.866072 
L 246.357431 190.97443 
L 268.441475 202.673047 
L 290.636043 190.262888 
L 290.746259 166.154456 
L 268.66237 154.456256 
L 246.46811 166.866072 
" clip-path="url(#p35b8f550b8)" style="fill: #e6a532; fill-opacity: 0.188235; stroke: #e6a532; stroke-width: 2"/>
    <path d="M 135.270744 277.135903 
L 135.158893 301.246362 
L 157.243024 312.946193 
L 179.43885 300.535147 
L 179.550236 276.424614 
L 157.466261 264.725201 
L 135.270744 277.135903 
" clip-path="url(#p35b8f550b8)" style="fill: #e6a532; fill-opacity: 0.188235; stroke: #e6a532; stroke-width: 2"/>
    <path d="M 92.002278 60.876571 
L 91.889984 84.982387 
L 113.971655 96.679564 
L 136.165465 84.270507 
L 136.277294 60.164618 
L 114.195779 48.467859 
L 92.002278 60.876571 
" clip-path="url(#p35b8f550b8)" style="fill: #e6a532; fill-opacity: 0.188235; stroke: #e6a532; stroke-width: 2"/>
    <path d="M 268.441475 202.673047 
L 268.331024 226.782204 
L 290.415606 238.481275 
L 312.610482 226.070772 
L 312.720469 201.961542 
L 290.636043 190.262888 
L 268.441475 202.673047 
" clip-path="url(#p35b8f550b8)" style="fill: #e6a532; fill-opacity: 0.188235; stroke: #e6a532; stroke-width: 2"/>
    <path d="M 246.136065 239.192671 
L 246.025378 263.302552 
L 268.110116 275.002041 
L 290.305384 262.59123 
L 290.415606 238.481275 
L 268.331024 226.782204 
L 246.136065 239.192671 
" clip-path="url(#p35b8f550b8)" style="fill: #e6a532; fill-opacity: 0.188235; stroke: #e6a532; stroke-width: 2"/>
    <path d="M 202.523677 95.255882 
L 202.41254 119.362643 
L 224.495511 131.06035 
L 246.689463 118.650878 
L 246.800135 94.544043 
L 224.71732 82.846753 
L 202.523677 95.255882 
" clip-path="url(#p35b8f550b8)" style="fill: #e6a532; fill-opacity: 0.188235; stroke: #e6a532; stroke-width: 2"/>
    <path d="M 202.19026 167.57769 
L 202.079116 191.685975 
L 224.162779 203.384554 
L 246.357431 190.97443 
L 246.46811 166.866072 
L 224.384603 155.16791 
L 202.19026 167.57769 
" clip-path="url(#p35b8f550b8)" style="fill: #e6a532; fill-opacity: 0.188235; stroke: #e6a532; stroke-width: 2"/>
    <path d="M 69.358497 169.712552 
L 69.245961 193.820616 
L 91.32848 205.519082 
L 113.523381 193.109067 
L 113.635453 169.00093 
L 91.553089 157.302881 
L 69.358497 169.712552 
" clip-path="url(#p35b8f550b8)" style="fill: #e6a532; fill-opacity: 0.188235; stroke: #e6a532; stroke-width: 2"/>
    <path d="M 136.277294 60.164618 
L 136.165465 84.270507 
L 158.247517 95.967722 
L 180.441243 83.55863 
L 180.552609 59.452666 
L 158.470712 47.755869 
L 136.277294 60.164618 
" clip-path="url(#p35b8f550b8)" style="fill: #e6a532; fill-opacity: 0.188235; stroke: #e6a532; stroke-width: 2"/>
    <path d="M 157.912707 168.289309 
L 157.801099 192.39752 
L 179.884381 204.096062 
L 202.079116 191.685975 
L 202.19026 167.57769 
L 180.107133 155.879566 
L 157.912707 168.289309 
" clip-path="url(#p35b8f550b8)" style="fill: #e6a532; fill-opacity: 0.188235; stroke: #e6a532; stroke-width: 2"/>
    <path d="M 90.99155 277.847192 
L 90.879235 301.957578 
L 112.962984 313.657371 
L 135.158893 301.246362 
L 135.270744 277.135903 
L 113.18715 265.436526 
L 90.99155 277.847192 
" clip-path="url(#p35b8f550b8)" style="fill: #e6a532; fill-opacity: 0.188235; stroke: #e6a532; stroke-width: 2"/>
    <path d="M 223.830027 275.713327 
L 223.719105 299.823934 
L 245.803998 311.523839 
L 267.999658 299.112721 
L 268.110116 275.002041 
L 246.025378 263.302552 
L 223.830027 275.713327 
" clip-path="url(#p35b8f550b8)" style="fill: #e6a532; fill-opacity: 0.188235; stroke: #e6a532; stroke-width: 2"/>
    <path d="M 158.247517 95.967722 
L 158.135916 120.07441 
L 180.218506 131.772079 
L 202.41254 119.362643 
L 202.523677 95.255882 
L 180.441243 83.55863 
L 158.247517 95.967722 
" clip-path="url(#p35b8f550b8)" style="fill: #e6a532; fill-opacity: 0.188235; stroke: #e6a532; stroke-width: 2"/>
    <path d="M 246.800135 94.544043 
L 246.689463 118.650878 
L 268.772814 130.348623 
L 290.966683 117.939115 
L 291.076891 93.832206 
L 268.993695 82.134879 
L 246.800135 94.544043 
" clip-path="url(#p35b8f550b8)" style="fill: #e6a532; fill-opacity: 0.188235; stroke: #e6a532; stroke-width: 2"/>
    <path d="M 201.856821 239.904068 
L 201.745671 264.013876 
L 223.830027 275.713327 
L 246.025378 263.302552 
L 246.136065 239.192671 
L 224.051864 227.493637 
L 201.856821 239.904068 
" clip-path="url(#p35b8f550b8)" style="fill: #e6a532; fill-opacity: 0.188235; stroke: #e6a532; stroke-width: 2"/>
    <path d="M 113.635453 169.00093 
L 113.523381 193.109067 
L 135.606282 204.807571 
L 157.801099 192.39752 
L 157.912707 168.289309 
L 135.829962 156.591222 
L 113.635453 169.00093 
" clip-path="url(#p35b8f550b8)" style="fill: #e6a532; fill-opacity: 0.188235; stroke: #e6a532; stroke-width: 2"/>
    <path d="M 157.577876 240.615466 
L 157.466261 264.725201 
L 179.550236 276.424614 
L 201.745671 264.013876 
L 201.856821 239.904068 
L 179.773002 228.205071 
L 157.577876 240.615466 
" clip-path="url(#p35b8f550b8)" style="fill: #e6a532; fill-opacity: 0.188235; stroke: #e6a532; stroke-width: 2"/>
    <path d="M 180.218506 131.772079 
L 180.107133 155.879566 
L 202.19026 167.57769 
L 224.384603 155.16791 
L 224.495511 131.06035 
L 202.41254 119.362643 
L 180.218506 131.772079 
" clip-path="url(#p35b8f550b8)" style="fill: #e6a532; fill-opacity: 0.188235; stroke: #e6a532; stroke-width: 2"/>
    <path d="M 179.550236 276.424614 
L 179.43885 300.535147 
L 201.523362 312.235016 
L 223.719105 299.823934 
L 223.830027 275.713327 
L 201.745671 264.013876 
L 179.550236 276.424614 
" clip-path="url(#p35b8f550b8)" style="fill: #e6a532; fill-opacity: 0.188235; stroke: #e6a532; stroke-width: 2"/>
    <path d="M 179.884381 204.096062 
L 179.773002 228.205071 
L 201.856821 239.904068 
L 224.051864 227.493637 
L 224.162779 203.384554 
L 202.079116 191.685975 
L 179.884381 204.096062 
" clip-path="url(#p35b8f550b8)" style="fill: #e6a532; fill-opacity: 0.188235; stroke: #e6a532; stroke-width: 2"/>
    <path d="M 25.420828 98.103253 
L 25.307835 122.209719 
L 47.38928 133.907276 
L 69.583563 121.497948 
L 69.696092 97.391407 
L 47.614803 85.694268 
L 25.420828 98.103253 
" clip-path="url(#p35b8f550b8)" style="fill: #e6a532; fill-opacity: 0.188235; stroke: #e6a532; stroke-width: 2"/>
    <path d="M 24.742832 242.749669 
L 24.629824 266.859182 
L 46.712655 278.558483 
L 68.908338 266.147853 
L 69.020881 242.038267 
L 46.938206 230.339383 
L 24.742832 242.749669 
" clip-path="url(#p35b8f550b8)" style="fill: #e6a532; fill-opacity: 0.188235; stroke: #e6a532; stroke-width: 2"/>
    <path d="M 47.050978 206.230594 
L 46.938206 230.339383 
L 69.020881 242.038267 
L 91.216173 229.627944 
L 91.32848 205.519082 
L 69.245961 193.820616 
L 47.050978 206.230594 
" clip-path="url(#p35b8f550b8)" style="fill: #e6a532; fill-opacity: 0.188235; stroke: #e6a532; stroke-width: 2"/>
    <path d="M 180.552609 59.452666 
L 180.441243 83.55863 
L 202.523677 95.255882 
L 224.71732 82.846753 
L 224.828222 58.740717 
L 202.745944 47.043882 
L 180.552609 59.452666 
" clip-path="url(#p35b8f550b8)" style="fill: #e6a532; fill-opacity: 0.188235; stroke: #e6a532; stroke-width: 2"/>
    <path d="M 290.746259 166.154456 
L 290.636043 190.262888 
L 312.720469 201.961542 
L 334.914954 189.551346 
L 335.024705 165.442841 
L 312.940435 153.744604 
L 290.746259 166.154456 
" clip-path="url(#p35b8f550b8)" style="fill: #e6a532; fill-opacity: 0.188235; stroke: #e6a532; stroke-width: 2"/>
   </g>
  </g>
 </g>
 <defs>
  <clipPath id="p35b8f550b8">
   <rect x="3.00024" y="11.242264" width="353.99952" height="337.515473"/>
  </clipPath>
 </defs>
</svg>
